<?xml version="1.0" standalone="no"?>
<!DOCTYPE svg PUBLIC "-//W3C//DTD SVG 20010904//EN"
 "http://www.w3.org/TR/2001/REC-SVG-20010904/DTD/svg10.dtd">
<svg version="1.0" xmlns="http://www.w3.org/2000/svg"
 width="1024.000000pt" height="1024.000000pt" viewBox="0 0 1024.000000 1024.000000"
 preserveAspectRatio="xMidYMid meet">
<metadata>
Created by potrace 1.11, written by Peter Selinger 2001-2013
</metadata>
<g transform="translate(0.000000,1024.000000) scale(0.100000,-0.100000)"
fill="#000000" stroke="none">
<path d="M4460 8575 c19 -19 36 -35 39 -35 3 0 -10 16 -29 35 -19 19 -36 35
-39 35 -3 0 10 -16 29 -35z"/>
<path d="M4530 8515 c0 -4 30 -39 66 -79 37 -39 71 -81 77 -93 6 -13 14 -23
18 -23 4 0 9 -6 12 -13 3 -8 -1 -14 -9 -14 -7 0 -10 5 -7 11 4 6 -1 5 -9 -2
-9 -8 -14 -20 -11 -28 3 -7 -2 -17 -11 -20 -9 -3 -16 -14 -17 -23 0 -12 -2
-12 -9 4 -5 11 -9 15 -9 8 -1 -7 -8 -10 -18 -7 -15 5 -15 4 -4 -4 16 -11 24
-55 9 -46 -5 4 -7 13 -3 21 4 12 3 13 -8 5 -8 -7 -17 -9 -21 -5 -4 4 -4 0 0
-10 4 -12 1 -17 -12 -17 -16 0 -17 -2 -4 -10 13 -8 12 -10 -4 -10 -13 0 -16
-5 -12 -16 5 -13 4 -14 -7 -6 -17 14 -38 -3 -30 -24 3 -8 -2 -17 -11 -20 -9
-3 -16 -14 -17 -23 0 -12 -2 -12 -9 4 -5 11 -9 15 -9 8 -1 -7 -8 -10 -18 -7
-15 5 -15 4 -4 -4 16 -11 24 -55 9 -46 -5 4 -7 13 -3 21 4 12 3 13 -8 5 -8 -7
-17 -9 -21 -5 -4 4 -4 0 0 -10 4 -12 1 -17 -11 -17 -10 0 -13 5 -9 12 5 7 3 8
-6 3 -10 -6 -9 -11 5 -22 18 -12 18 -13 1 -13 -13 0 -16 -5 -12 -16 5 -13 4
-14 -7 -6 -17 14 -38 -3 -30 -24 3 -8 -2 -17 -11 -20 -9 -3 -17 -14 -17 -23
-1 -9 -5 -2 -9 14 -7 26 -8 27 -10 8 -1 -13 -4 -27 -5 -33 -1 -5 -3 -16 -4
-22 -1 -10 -3 -10 -10 0 -9 15 -17 15 -45 0 -19 -11 -19 -11 0 -26 18 -13 17
-14 -10 -8 -26 6 -27 6 -12 -9 20 -20 20 -22 1 -22 -8 0 -11 5 -8 11 4 6 -1 5
-9 -2 -9 -8 -14 -20 -11 -28 3 -7 -2 -17 -11 -20 -9 -3 -17 -14 -17 -23 -1 -9
-5 -2 -9 14 -7 26 -8 27 -10 8 -1 -13 -4 -27 -5 -33 -1 -5 -3 -16 -4 -22 -1
-10 -3 -10 -10 0 -18 29 -58 1 -56 -37 1 -23 -1 -28 -10 -21 -9 7 -17 5 -26
-7 -8 -9 -9 -14 -2 -10 6 4 15 2 19 -5 4 -7 4 -10 -1 -6 -4 4 -14 0 -22 -10
-8 -9 -12 -12 -9 -5 4 6 2 14 -4 18 -6 4 -10 -7 -11 -27 l-1 -33 -8 30 c-7 26
-8 27 -10 8 -1 -13 -4 -27 -5 -33 -1 -5 -3 -16 -4 -22 -1 -10 -3 -10 -10 0
-11 17 -12 18 -37 4 -15 -8 -20 -20 -19 -41 1 -23 -1 -28 -10 -21 -9 7 -17 5
-26 -7 -8 -9 -9 -14 -2 -10 6 4 15 2 19 -5 4 -7 4 -10 -1 -6 -4 4 -14 0 -22
-10 -8 -9 -12 -12 -9 -5 4 6 2 14 -4 18 -6 4 -10 -7 -11 -27 l-1 -33 -8 30
c-7 26 -8 27 -10 8 -1 -13 -4 -27 -5 -33 -1 -5 -3 -16 -4 -22 -1 -9 -4 -9 -11
2 -8 12 -10 12 -16 -3 -3 -9 -14 -17 -23 -17 -13 0 -14 2 -2 9 8 5 16 17 17
25 1 9 -2 14 -7 10 -5 -3 -7 -9 -4 -14 3 -4 -1 -10 -9 -13 -7 -3 -12 -18 -11
-36 1 -23 -1 -28 -10 -21 -9 7 -17 5 -26 -7 -8 -9 -9 -14 -2 -10 6 4 15 2 19
-5 4 -7 4 -10 -1 -6 -4 4 -14 0 -22 -10 -8 -9 -12 -12 -9 -5 4 6 2 14 -4 18
-6 4 -10 -7 -11 -27 l-1 -33 -8 30 c-9 34 -11 32 -15 -10 -4 -49 -5 -51 -15
-35 -8 12 -10 12 -16 -3 -3 -9 -14 -17 -23 -17 -13 0 -14 2 -2 9 8 5 16 17 17
25 1 9 -2 14 -7 10 -5 -3 -7 -9 -4 -14 3 -4 -1 -10 -9 -13 -7 -3 -12 -18 -11
-36 1 -23 -1 -28 -10 -21 -9 7 -17 5 -26 -7 -8 -9 -9 -14 -2 -10 6 4 15 2 19
-5 4 -7 4 -10 -1 -6 -4 4 -14 0 -22 -10 -8 -9 -12 -12 -9 -5 4 6 2 14 -4 18
-6 4 -10 -7 -11 -27 l-1 -33 -8 30 c-9 34 -11 32 -15 -10 -4 -49 -5 -51 -15
-35 -8 12 -10 12 -16 -3 -3 -9 -14 -17 -23 -17 -13 0 -14 2 -2 9 8 5 16 17 17
25 1 9 -2 14 -7 10 -5 -3 -7 -9 -4 -14 3 -4 -1 -10 -9 -13 -7 -3 -12 -18 -11
-36 1 -23 -1 -28 -10 -21 -9 7 -17 5 -26 -7 -8 -9 -9 -14 -2 -10 6 4 15 2 19
-5 4 -7 4 -10 -1 -6 -4 4 -14 0 -22 -10 -8 -9 -12 -12 -9 -5 4 6 2 14 -4 18
-6 4 -10 -7 -11 -27 l-1 -33 -8 30 c-9 34 -11 32 -15 -10 -4 -49 -5 -51 -15
-35 -8 12 -10 12 -16 -3 -3 -9 -14 -17 -23 -17 -13 0 -14 2 -2 9 8 5 16 17 17
25 1 9 -2 14 -7 10 -5 -3 -7 -10 -4 -15 6 -8 -9 -13 -28 -10 -5 1 -5 -4 0 -11
13 -21 11 -59 -3 -47 -8 6 -16 4 -25 -8 -8 -9 -9 -14 -2 -10 6 4 15 2 19 -5 4
-7 4 -10 -1 -6 -4 4 -14 0 -22 -10 -8 -9 -12 -12 -9 -5 4 6 2 14 -4 18 -6 4
-7 11 -4 17 4 6 3 8 -3 5 -5 -3 -8 -21 -7 -39 3 -30 3 -31 -5 -8 -10 29 -12
27 -16 -15 -4 -49 -5 -51 -15 -35 -8 12 -10 12 -16 -3 -3 -9 -14 -17 -23 -17
-13 0 -14 2 -2 9 8 5 16 17 17 25 1 9 -2 14 -7 10 -5 -3 -7 -10 -4 -15 6 -8
-9 -13 -28 -10 -5 1 -5 -4 0 -11 13 -21 11 -59 -2 -48 -7 6 -15 7 -19 3 -4 -4
-15 -8 -24 -8 -13 0 -17 -8 -15 -35 2 -31 1 -32 -6 -10 -10 29 -12 27 -16 -15
-4 -49 -5 -51 -15 -35 -8 12 -10 12 -16 -3 -3 -9 -14 -17 -23 -17 -13 0 -14 2
-2 9 8 5 16 17 17 25 1 9 -2 14 -7 10 -5 -3 -7 -10 -4 -15 6 -8 -9 -13 -28
-10 -5 1 -5 -4 -1 -10 3 -6 0 -16 -7 -21 -11 -8 -11 -9 1 -5 10 3 16 -2 16
-14 0 -11 -4 -15 -11 -10 -5 4 -21 5 -35 1 -21 -5 -25 -11 -23 -40 2 -31 1
-32 -6 -10 -10 29 -12 27 -16 -15 -4 -49 -5 -51 -15 -35 -8 12 -10 12 -16 -3
-3 -9 -14 -17 -23 -17 -13 0 -14 2 -2 9 8 5 16 17 17 25 1 9 -2 14 -7 10 -5
-3 -7 -10 -4 -15 6 -8 -9 -13 -28 -10 -5 1 -5 -4 -1 -10 3 -6 0 -16 -7 -21
-11 -8 -10 -9 4 -4 10 3 15 2 12 -4 -3 -5 -20 -13 -38 -18 -26 -7 -31 -13 -29
-33 2 -17 0 -20 -6 -10 -11 16 -19 4 -16 -26 0 -12 -2 -20 -7 -17 -5 2 -14 -4
-21 -16 -7 -11 -20 -20 -28 -20 -13 0 -13 2 -1 9 8 5 16 17 17 25 1 9 -2 14
-7 10 -5 -3 -7 -10 -4 -15 6 -8 -9 -13 -28 -10 -5 1 -5 -4 -1 -10 3 -6 0 -16
-7 -21 -11 -8 -10 -9 4 -4 10 3 15 2 12 -4 -3 -5 -20 -13 -38 -18 -26 -7 -31
-13 -29 -33 2 -17 0 -20 -6 -10 -11 16 -19 4 -16 -26 0 -12 -2 -20 -7 -17 -5
2 -14 -4 -21 -16 -7 -11 -20 -20 -28 -20 -13 0 -13 2 -1 9 8 5 16 17 17 25 1
9 -2 14 -7 10 -5 -3 -7 -10 -4 -15 6 -8 -8 -13 -28 -10 -4 1 -3 -8 3 -19 11
-21 4 -26 -52 -44 -11 -3 -15 -12 -11 -28 3 -17 2 -19 -5 -9 -11 16 -19 4 -16
-26 0 -12 -2 -20 -7 -17 -5 2 -14 -4 -21 -16 -7 -11 -20 -20 -28 -20 -13 0
-13 2 -1 9 8 5 16 17 17 25 1 9 -2 14 -7 10 -5 -3 -7 -10 -4 -15 6 -8 -8 -13
-28 -10 -4 1 -3 -8 3 -19 11 -21 4 -26 -52 -44 -11 -3 -15 -12 -11 -28 3 -17
2 -19 -5 -9 -11 16 -19 4 -16 -26 0 -12 -2 -20 -7 -17 -5 2 -14 -4 -21 -16 -7
-11 -20 -20 -28 -20 -13 0 -13 2 -1 9 8 5 16 17 17 25 1 9 -2 14 -7 10 -5 -3
-7 -10 -4 -15 6 -8 -8 -13 -28 -10 -4 1 -3 -8 3 -19 11 -21 4 -26 -52 -44 -11
-3 -15 -12 -11 -28 3 -17 2 -19 -5 -9 -11 16 -19 4 -16 -26 0 -12 -2 -20 -7
-17 -5 2 -14 -4 -21 -16 -7 -11 -20 -20 -28 -20 -13 0 -13 2 -1 9 8 5 16 17
17 25 1 9 -2 14 -7 10 -5 -3 -7 -10 -4 -15 6 -8 -8 -13 -28 -10 -4 1 -3 -8 3
-18 8 -16 6 -22 -9 -31 -11 -5 -26 -10 -35 -10 -8 0 -18 -4 -21 -10 -4 -6 1
-7 12 -4 14 5 15 4 4 -4 -11 -8 -23 -5 -45 11 -55 38 -255 239 -318 319 -63
80 -87 103 -47 46 232 -333 600 -605 997 -737 950 -316 1990 126 2422 1032
354 743 218 1611 -348 2222 -34 37 -62 64 -62 60z m-3 -390 c0 -8 -4 -12 -9
-9 -5 3 -6 10 -3 15 9 13 12 11 12 -6z m-160 -160 c0 -8 -4 -12 -9 -9 -5 3 -6
10 -3 15 9 13 12 11 12 -6z m-107 -95 c0 -5 -8 -10 -17 -10 -15 0 -16 2 -3 10
19 12 20 12 20 0z m-160 -160 c0 -5 -8 -10 -17 -10 -15 0 -16 2 -3 10 19 12
20 12 20 0z m-160 -160 c0 -5 -8 -10 -17 -10 -15 0 -16 2 -3 10 19 12 20 12
20 0z m-855 -873 c3 -4 2 -5 -2 -2 -3 3 -11 -1 -17 -8 -6 -7 -10 -10 -9 -8 2
2 -2 10 -8 18 -9 11 -7 13 9 10 12 -2 24 -6 27 -10z m-160 -160 c3 -4 2 -5 -2
-2 -3 3 -11 -1 -17 -8 -6 -7 -10 -10 -9 -8 2 2 -2 10 -8 18 -9 11 -7 13 9 10
12 -2 24 -6 27 -10z m-182 -162 c4 -8 1 -17 -6 -21 -7 -4 -9 -4 -5 1 4 4 3 14
-3 22 -7 8 -8 13 -1 13 5 0 12 -7 15 -15z m-160 -160 c4 -8 1 -17 -6 -21 -7
-4 -9 -4 -5 1 4 4 3 14 -3 22 -7 8 -8 13 -1 13 5 0 12 -7 15 -15z m-160 -160
c4 -8 1 -17 -6 -21 -7 -4 -9 -4 -5 1 4 4 3 14 -3 22 -7 8 -8 13 -1 13 5 0 12
-7 15 -15z m-160 -160 c4 -8 1 -17 -6 -21 -7 -4 -9 -4 -5 1 4 4 3 14 -3 22 -7
8 -8 13 -1 13 5 0 12 -7 15 -15z"/>
<path d="M4640 8270 c0 -5 5 -10 11 -10 5 0 7 5 4 10 -3 6 -8 10 -11 10 -2 0
-4 -4 -4 -10z"/>
<path d="M4480 8110 c0 -5 5 -10 11 -10 5 0 7 5 4 10 -3 6 -8 10 -11 10 -2 0
-4 -4 -4 -10z"/>
<path d="M4320 7950 c0 -5 5 -10 11 -10 5 0 7 5 4 10 -3 6 -8 10 -11 10 -2 0
-4 -4 -4 -10z"/>
<path d="M4270 7911 c0 -6 4 -12 8 -15 5 -3 9 1 9 9 0 8 -4 15 -9 15 -4 0 -8
-4 -8 -9z"/>
<path d="M4160 7790 c0 -5 5 -10 11 -10 5 0 7 5 4 10 -3 6 -8 10 -11 10 -2 0
-4 -4 -4 -10z"/>
<path d="M4110 7751 c0 -6 4 -12 8 -15 5 -3 9 1 9 9 0 8 -4 15 -9 15 -4 0 -8
-4 -8 -9z"/>
<path d="M3950 7591 c0 -6 4 -12 8 -15 5 -3 9 1 9 9 0 8 -4 15 -9 15 -4 0 -8
-4 -8 -9z"/>
<path d="M3790 7431 c0 -6 4 -12 8 -15 5 -3 9 1 9 9 0 8 -4 15 -9 15 -4 0 -8
-4 -8 -9z"/>
<path d="M3630 7271 c0 -6 4 -12 8 -15 5 -3 9 1 9 9 0 8 -4 15 -9 15 -4 0 -8
-4 -8 -9z"/>
<path d="M3470 7111 c0 -6 4 -12 8 -15 5 -3 9 1 9 9 0 8 -4 15 -9 15 -4 0 -8
-4 -8 -9z"/>
<path d="M3310 6951 c0 -6 4 -12 8 -15 5 -3 9 1 9 9 0 8 -4 15 -9 15 -4 0 -8
-4 -8 -9z"/>
<path d="M3150 6791 c0 -6 4 -12 8 -15 5 -3 9 1 9 9 0 8 -4 15 -9 15 -4 0 -8
-4 -8 -9z"/>
<path d="M2990 6631 c0 -6 4 -12 8 -15 5 -3 9 1 9 9 0 8 -4 15 -9 15 -4 0 -8
-4 -8 -9z"/>
<path d="M2830 6471 c0 -6 4 -12 8 -15 5 -3 9 1 9 9 0 8 -4 15 -9 15 -4 0 -8
-4 -8 -9z"/>
<path d="M2670 6309 c0 -5 5 -7 10 -4 6 3 10 8 10 11 0 2 -4 4 -10 4 -5 0 -10
-5 -10 -11z"/>
<path d="M2510 6149 c0 -5 5 -7 10 -4 6 3 10 8 10 11 0 2 -4 4 -10 4 -5 0 -10
-5 -10 -11z"/>
<path d="M2430 6080 c0 -5 7 -7 15 -4 8 4 15 8 15 10 0 2 -7 4 -15 4 -8 0 -15
-4 -15 -10z"/>
<path d="M2350 5989 c0 -5 5 -7 10 -4 6 3 10 8 10 11 0 2 -4 4 -10 4 -5 0 -10
-5 -10 -11z"/>
<path d="M2270 5920 c0 -5 7 -7 15 -4 8 4 15 8 15 10 0 2 -7 4 -15 4 -8 0 -15
-4 -15 -10z"/>
<path d="M6750 5839 c-586 -52 -1160 -320 -1581 -739 -147 -146 -220 -235
-333 -403 -580 -861 -580 -2004 0 -2874 421 -630 1054 -1034 1804 -1150 162
-25 568 -25 730 0 585 90 1084 346 1490 763 604 621 854 1481 679 2337 -147
723 -634 1382 -1295 1751 -446 249 -977 361 -1494 315z"/>
<path d="M2190 5829 c0 -5 5 -7 10 -4 6 3 10 8 10 11 0 2 -4 4 -10 4 -5 0 -10
-5 -10 -11z"/>
<path d="M2110 5760 c0 -5 7 -7 15 -4 8 4 15 8 15 10 0 2 -7 4 -15 4 -8 0 -15
-4 -15 -10z"/>
<path d="M2030 5669 c0 -5 5 -7 10 -4 6 3 10 8 10 11 0 2 -4 4 -10 4 -5 0 -10
-5 -10 -11z"/>
<path d="M1950 5600 c0 -5 7 -7 15 -4 8 4 15 8 15 10 0 2 -7 4 -15 4 -8 0 -15
-4 -15 -10z"/>
</g>
</svg>
